# xmcd
#
# Track frame offsets: 
#        150
#        19547
#        39727
#        65400
#        78824
#        94492
#        111310
#        128101
#        142040
#        161813
#        172249
#        187411
#        199543
#        219625
#        239322
#        254201
#        266180
#        280407
#        290074
#        305407
#
# Disc length: 4203 seconds
#
# Revision: 1
# Processed by: cddbd v1.5.2PL0 Copyright (c) Steve Scherf et al.
# Submitted via: ExactAudioCopy v0.99pb5
#
DISCID=48106914
DTITLE=Various Artist - A Western Jubilee: Songs and Stories of the American 
DTITLE=West
DYEAR=2004
DGENRE=Country
TTITLE0=Peter Rowan and Don Edwards (with Norman Blake and Tony Rice) - Th
TTITLE0=e Old Chisholm Trail
TTITLE1=Sons of The San Joaquin - Sierra Nevada
TTITLE2=Don Edwards and Waddie Mitchell (with the Fort Worth Symphony Or
TTITLE2=chestra - Sage and Cedar - Shendoah
TTITLE3=Rich O'Brien - Wheels
TTITLE4=Red Stegall - My America
TTITLE5=Don Edwards (with Norman and Nancy Blake) - By the Silvery Rio G
TTITLE5=rande
TTITLE6=David Wilkie and Cowboy Celtic - The Drover Road to Amulree
TTITLE7=Sons of The San Joaquin - Unclouded Day
TTITLE8=Katy Moffatt - The Brazos
TTITLE9=Tom Morrell - Velociraptor Rag
TTITLE10=Waddie Mitchell - Don
TTITLE11=Don Edwards - Whoopi Ti Yi Yo
TTITLE12=Norman Blake and Rich O'Brien - Grandpa's Barn
TTITLE13=Sons of The San Joaquin - From Whence Came the Cowboy
TTITLE14=Wylie and Wild West - Hooves of the Horses
TTITLE15=Don Edwards - Way Out West in Texas
TTITLE16=Glenn Ohrlin - International Glenn
TTITLE17=Rich O'Brien - Come and Dine
TTITLE18=Sons of The San Joaquin - He's Runnin' Out of Roundups
TTITLE19=Waddie Mitchell - No Second Chance
EXTD=Old West Songs and Stories
EXTT0=
EXTT1=
EXTT2=
EXTT3=
EXTT4=
EXTT5=
EXTT6=
EXTT7=
EXTT8=
EXTT9=
EXTT10=
EXTT11=
EXTT12=
EXTT13=
EXTT14=
EXTT15=
EXTT16=
EXTT17=
EXTT18=
EXTT19=
PLAYORDER=
